<?xml version="1.0" standalone="no"?>
<!DOCTYPE svg PUBLIC "-//W3C//DTD SVG 20010904//EN"
 "http://www.w3.org/TR/2001/REC-SVG-20010904/DTD/svg10.dtd">
<svg version="1.0" xmlns="http://www.w3.org/2000/svg"
 width="1280.000000pt" height="678.000000pt" viewBox="0 0 1280.000000 678.000000"
 preserveAspectRatio="xMidYMid meet">
<metadata>
Created by potrace 1.15, written by Peter Selinger 2001-2017
</metadata>
<g transform="translate(0.000000,678.000000) scale(0.100000,-0.100000)"
fill="#000000" stroke="none">
<path d="M10575 6745 c-38 -18 -284 -132 -545 -255 -261 -122 -499 -234 -529
-248 -43 -20 -50 -27 -38 -34 9 -5 103 -38 209 -74 106 -36 194 -67 195 -68 5
-4 -217 -249 -405 -448 -546 -577 -1194 -1134 -1864 -1601 -1723 -1200 -3756
-1979 -6296 -2412 -31 -6 -32 -8 -27 -38 3 -18 16 -94 29 -170 13 -75 26 -140
30 -144 8 -8 252 33 630 108 2822 560 5084 1607 6916 3203 345 300 814 763
1109 1093 84 95 157 171 161 168 4 -2 56 -81 115 -175 59 -94 109 -169 111
-167 4 4 273 1291 271 1293 -1 1 -33 -13 -72 -31z"/>
<path d="M11243 5672 l-213 -107 0 -2452 0 -2453 -180 0 -180 0 0 1805 0 1805
-317 0 -318 0 -217 -107 -218 -107 0 -1698 0 -1698 -180 0 -180 0 0 1245 c0
1179 -1 1245 -17 1245 -10 0 -154 0 -320 0 l-302 1 -215 -108 -216 -108 0
-1137 0 -1138 -180 0 -180 0 0 824 c0 742 -2 824 -16 830 -9 3 -148 6 -309 6
l-294 0 -223 -112 -223 -113 -3 -718 -2 -717 -180 0 -180 0 0 525 0 525 -311
0 -310 0 -220 -107 -219 -106 0 -419 0 -418 -185 0 -185 0 0 300 0 300 -310 0
-310 0 -220 -110 -220 -110 0 -190 0 -190 -180 0 -180 0 0 125 0 125 -317 0
-318 1 -217 -108 c-162 -80 -218 -112 -218 -125 0 -17 -14 -18 -180 -18 -118
0 -180 4 -180 10 0 13 -610 7 -715 -7 -64 -9 -127 -38 -725 -335 l-655 -326
5931 -1 5930 -1 465 328 464 327 -352 3 -353 2 0 2560 0 2560 -317 -1 -318 0
-212 -107z"/>
</g>
</svg>
